{
	"asset":{
		"generator":"Khronos glTF Blender I/O v4.1.63",
		"version":"2.0"
	},
	"scene":0,
	"scenes":[
		{
			"name":"Scene",
			"nodes":[
				0,
				1
			]
		}
	],
	"nodes":[
		{
			"mesh":0,
			"name":"Circle"
		},
		{
			"mesh":1,
			"name":"Cube.001",
			"rotation":[
				0.1795375645160675,
				0.6704620122909546,
				-0.1904965341091156,
				0.6942319869995117
			],
			"scale":[
				-1.0840283632278442,
				-1.0840297937393188,
				-1.0840281248092651
			],
			"translation":[
				0.22378818690776825,
				-0.13143512606620789,
				-4.119770050048828
			]
		}
	],
	"materials":[
		{
			"doubleSided":true,
			"name":"Material.001",
			"pbrMetallicRoughness":{
				"baseColorTexture":{
					"index":0
				},
				"metallicFactor":0
			}
		}
	],
	"meshes":[
		{
			"name":"Circle",
			"primitives":[
				{
					"attributes":{
						"POSITION":0,
						"NORMAL":1,
						"TEXCOORD_0":2
					},
					"indices":3,
					"material":0
				}
			]
		},
		{
			"name":"Cube.002",
			"primitives":[
				{
					"attributes":{
						"POSITION":4,
						"NORMAL":5,
						"TEXCOORD_0":6
					},
					"indices":7,
					"material":0
				}
			]
		}
	],
	"textures":[
		{
			"sampler":0,
			"source":0
		}
	],
	"images":[
		{
			"mimeType":"image/png",
			"name":"Palette",
			"uri":"textures/Palette.png"
		}
	],
	"accessors":[
		{
			"bufferView":0,
			"componentType":5126,
			"count":752,
			"max":[
				1.11184823513031,
				1.1356837749481201,
				-0.329742431640625
			],
			"min":[
				-0.8196467757225037,
				-0.5092865228652954,
				-3.361030340194702
			],
			"type":"VEC3"
		},
		{
			"bufferView":1,
			"componentType":5126,
			"count":752,
			"type":"VEC3"
		},
		{
			"bufferView":2,
			"componentType":5126,
			"count":752,
			"type":"VEC2"
		},
		{
			"bufferView":3,
			"componentType":5123,
			"count":1278,
			"type":"SCALAR"
		},
		{
			"bufferView":4,
			"componentType":5126,
			"count":8001,
			"max":[
				4.161186218261719,
				0.8215851187705994,
				1.3717982769012451
			],
			"min":[
				-1.1082704067230225,
				-0.37058329582214355,
				-0.40857070684432983
			],
			"type":"VEC3"
		},
		{
			"bufferView":5,
			"componentType":5126,
			"count":8001,
			"type":"VEC3"
		},
		{
			"bufferView":6,
			"componentType":5126,
			"count":8001,
			"type":"VEC2"
		},
		{
			"bufferView":7,
			"componentType":5123,
			"count":13272,
			"type":"SCALAR"
		}
	],
	"bufferViews":[
		{
			"buffer":0,
			"byteLength":9024,
			"byteOffset":0,
			"target":34962
		},
		{
			"buffer":0,
			"byteLength":9024,
			"byteOffset":9024,
			"target":34962
		},
		{
			"buffer":0,
			"byteLength":6016,
			"byteOffset":18048,
			"target":34962
		},
		{
			"buffer":0,
			"byteLength":2556,
			"byteOffset":24064,
			"target":34963
		},
		{
			"buffer":0,
			"byteLength":96012,
			"byteOffset":26620,
			"target":34962
		},
		{
			"buffer":0,
			"byteLength":96012,
			"byteOffset":122632,
			"target":34962
		},
		{
			"buffer":0,
			"byteLength":64008,
			"byteOffset":218644,
			"target":34962
		},
		{
			"buffer":0,
			"byteLength":26544,
			"byteOffset":282652,
			"target":34963
		}
	],
	"samplers":[
		{
			"magFilter":9728,
			"minFilter":9984
		}
	],
	"buffers":[
		{
			"byteLength":309196,
			"uri":"obj_spawner.bin"
		}
	]
}
